<?xml version="1.0" encoding="UTF-8"?>
<svg xmlns="http://www.w3.org/2000/svg" xmlns:xlink="http://www.w3.org/1999/xlink" viewBox="0 0 500 500" width="500px" height="500px">
<g id="surface14462845">
<path style=" stroke:none;fill-rule:nonzero;fill:rgb(90.588236%,29.803923%,23.529412%);fill-opacity:1;" d="M 250 20 C 123.191406 20 20 123.191406 20 250 C 20 376.808594 123.191406 480 250 480 C 376.808594 480 480 376.808594 480 250 C 480 123.191406 376.808594 20 250 20 Z M 337.101562 322.898438 C 341 326.800781 341 333.199219 337.101562 337.101562 C 335.101562 339 332.601562 340 330 340 C 327.398438 340 324.898438 339 322.898438 337.101562 L 250 264.199219 L 177.101562 337.101562 C 175.101562 339 172.601562 340 170 340 C 167.398438 340 164.898438 339 162.898438 337.101562 C 159 333.199219 159 326.800781 162.898438 322.898438 L 235.800781 250 L 162.898438 177.101562 C 159 173.199219 159 166.800781 162.898438 162.898438 C 166.800781 159 173.199219 159 177.101562 162.898438 L 250 235.800781 L 322.898438 162.898438 C 326.800781 159 333.199219 159 337.101562 162.898438 C 341 166.800781 341 173.199219 337.101562 177.101562 L 264.199219 250 Z M 337.101562 322.898438 "/>
</g>
</svg>
